<svg width="18" height="18" viewBox="0 0 18 18" fill="none" xmlns="http://www.w3.org/2000/svg">
<path d="M15.5402 5.99832L5.88021 0.458317C5.3575 0.156477 4.76421 -0.00164499 4.16061 1.29041e-05C3.557 0.0016708 2.96459 0.163049 2.44354 0.467756C1.92249 0.772464 1.49137 1.20964 1.19396 1.73489C0.89655 2.26014 0.743452 2.85475 0.750215 3.45832V14.5783C0.750215 15.4854 1.11053 16.3552 1.75191 16.9966C2.39328 17.638 3.26317 17.9983 4.17021 17.9983C4.77065 17.9973 5.3603 17.8387 5.88021 17.5383L15.5402 11.9983C16.0593 11.6979 16.4902 11.2663 16.7898 10.7468C17.0894 10.2272 17.2471 9.63804 17.2471 9.03832C17.2471 8.43859 17.0894 7.84941 16.7898 7.32988C16.4902 6.81035 16.0593 6.37873 15.5402 6.07832V5.99832ZM14.5402 10.1883L4.88021 15.8083C4.6637 15.931 4.41908 15.9955 4.17021 15.9955C3.92135 15.9955 3.67673 15.931 3.46021 15.8083C3.24431 15.6837 3.06503 15.5044 2.9404 15.2885C2.81576 15.0725 2.75017 14.8276 2.75021 14.5783V3.41832C2.75017 3.16901 2.81576 2.92409 2.9404 2.70818C3.06503 2.49226 3.24431 2.31297 3.46021 2.18832C3.67762 2.06747 3.92151 2.00221 4.17021 1.99832C4.41875 2.00342 4.66235 2.06861 4.88021 2.18832L14.5402 7.76832C14.7562 7.89292 14.9356 8.07219 15.0603 8.28811C15.185 8.50402 15.2506 8.74897 15.2506 8.99832C15.2506 9.24766 15.185 9.49261 15.0603 9.70853C14.9356 9.92445 14.7562 10.1037 14.5402 10.2283V10.1883Z" fill="#FF8A2E"/>
<path d="M14.5402 10.1883L4.88021 15.8083C4.6637 15.931 4.41908 15.9955 4.17021 15.9955C3.92135 15.9955 3.67673 15.931 3.46021 15.8083C3.24431 15.6837 3.06503 15.5044 2.9404 15.2885C2.81576 15.0725 2.75017 14.8276 2.75021 14.5783V3.41832C2.75017 3.16901 2.81576 2.92409 2.9404 2.70818C3.06503 2.49226 3.24431 2.31297 3.46021 2.18832C3.67762 2.06747 3.92151 2.00221 4.17021 1.99832C4.41875 2.00342 4.66235 2.06861 4.88021 2.18832L14.5402 7.76832C14.7562 7.89292 14.9356 8.07219 15.0603 8.28811C15.185 8.50402 15.2506 8.74897 15.2506 8.99832C15.2506 9.24766 15.185 9.49261 15.0603 9.70853C14.9356 9.92445 14.7562 10.1037 14.5402 10.2283V10.1883Z" fill="#FF8A2E"/>
</svg>
