<svg width="22" height="21" viewBox="0 0 22 21" fill="none" xmlns="http://www.w3.org/2000/svg">
<path d="M19.5219 5.15801C20.0138 6.30672 20.1343 7.58052 19.8663 8.80107C19.5983 10.0216 18.9554 11.1278 18.0274 11.9648C17.0995 12.8018 15.9331 13.3276 14.6915 13.4688C13.4499 13.6098 12.1952 13.3592 11.1031 12.7518L5.84375 18.8455C5.42106 19.2682 4.84777 19.5057 4.25 19.5057C3.65223 19.5057 3.07894 19.2682 2.65625 18.8455C2.23356 18.4228 1.99609 17.8495 1.99609 17.2518C1.99609 16.654 2.23356 16.0807 2.65625 15.658L8.75002 10.3986C8.14259 9.30657 7.89187 8.0519 8.03302 6.81027C8.17409 5.56862 8.69999 4.40219 9.53692 3.47428C10.3739 2.54637 11.4801 1.90342 12.7007 1.63545C13.9213 1.36748 15.1951 1.48792 16.3438 1.97988L12.4063 5.90801L12.9406 8.56115L15.5938 9.09552L19.5219 5.15801Z" stroke="#FF8A2E" stroke-width="2" stroke-linecap="round" stroke-linejoin="round"/>
</svg>
